{"title":"Two.Gates.of.Sleep.2011.BRRip.AC3.HORiZON-ArtSubs","uid":7871934,"size":1469419474,"categoryP":"video","categoryS":"movies","magnet":"?xt=urn:btih:f1953a14b5ddecfe23ccf17c029bdf496ff1a508&amp;dn=Two.Gates.of.Sleep.2011.BRRip.AC3.HORiZON-ArtSubs&amp;tr=udp%3A%2F%2Ftracker.openbittorrent.com%3A80&amp;tr=udp%3A%2F%2Fopen.demonii.com%3A1337&amp;tr=udp%3A%2F%2Ftracker.coppersurfer.tk%3A6969&amp;tr=udp%3A%2F%2Fexodus.desync.com%3A6969","seeders":1,"leechers":0,"uploader":"lletaif","files":3,"time":1354231048,"description":"Plot: After preparing for their mother's imminent death, two brothers go on an arduous upriver journey to honor her final request.\n\nDirector: Alistair Banks Griffin\n\nWriter: Alistair Banks Griffin\n\nStars: Brady Corbet, David Call and Ross Francis\n\nImdb:  &lt;a href=&quot;\nhttp://www.imdb.com/title/tt1462058/?ref_=fn_al_tt_1&quot; rel=&quot;nofollow&quot; target=&quot;_NEW&quot;&gt;\nhttp://www.imdb.com/title/tt1462058/?ref_=fn_al_tt_1&lt;/a&gt;\n\nLanguage: English\n\n\nSubtitle: French\n\n\nRip Specs:\n\nGeneral\nComplete name                    : Two.Gates.of.Sleep.2011.BRRip.AC3.HORiZON-ArtSubs.avi\nFormat                           : AVI\nFormat/Info                      : Audio Video Interleave\nFile size                        : 1.37 GiB\nDuration                         : 1h 15mn\nOverall bit rate                 : 2 600 Kbps\nWriting application              : FairUse Wizard - http://fairusewizard.com\nWriting library                  : The best and REALLY easy backup tool\n\nVideo\nID                               : 0\nFormat                           : MPEG-4 Visual\nFormat profile                   : Advanced Simple@L5\nFormat settings, BVOP            : 1\nFormat settings, QPel            : No\nFormat settings, GMC             : No warppoints\nFormat settings, Matrix          : Default (MPEG)\nMuxing mode                      : Packed bitstream\nCodec ID                         : XVID\nCodec ID/Hint                    : XviD\nDuration                         : 1h 15mn\nBit rate                         : 2 142 Kbps\nWidth                            : 704 pixels\nHeight                           : 288 pixels\nDisplay aspect ratio             : 2.40:1\nFrame rate                       : 25.000 fps\nColor space                      : YUV\nChroma subsampling               : 4:2:0\nBit depth                        : 8 bits\nScan type                        : Progressive\nCompression mode                 : Lossy\nBits/(Pixel*Frame)               : 0.423\nStream size                      : 1.13 GiB (82%)\nWriting library                  : XviD 1.2.0.dev47 (UTC 2006-11-01)\n\nAudio\nID                               : 1\nFormat                           : AC-3\nFormat/Info                      : Audio Coding 3\nMode extension                   : CM (complete main)\nCodec ID                         : 2000\nDuration                         : 1h 15mn\nBit rate mode                    : Constant\nBit rate                         : 448 Kbps\nChannel(s)                       : 6 channels\nChannel positions                : Front: L C R, Side: L R, LFE\nSampling rate                    : 48.0 KHz\nBit depth                        : 16 bits\nCompression mode                 : Lossy\nStream size                      : 241 MiB (17%)\nAlignment                        : Split accross interleaves\nInterleave, duration             : 40 ms (1.00 video frame)\nInterleave, preload duration     : 500 ms\n\n","torrent":{"xt":"urn:btih:f1953a14b5ddecfe23ccf17c029bdf496ff1a508","amp;dn":"Two.Gates.of.Sleep.2011.BRRip.AC3.HORiZON-ArtSubs","amp;tr":["udp%3A%2F%2Ftracker.openbittorrent.com%3A80","udp%3A%2F%2Fopen.demonii.com%3A1337","udp%3A%2F%2Ftracker.coppersurfer.tk%3A6969","udp%3A%2F%2Fexodus.desync.com%3A6969"],"infoHash":"f1953a14b5ddecfe23ccf17c029bdf496ff1a508","infoHashBuffer":{"type":"Buffer","data":[241,149,58,20,181,221,236,254,35,204,241,124,2,155,223,73,111,241,165,8]},"announce":[],"urlList":[]}}